<svg width="800" height="600" viewBox="0 0 800 600" xmlns="http://www.w3.org/2000/svg">
  <defs>
    <linearGradient id="bgGradient" x1="0%" y1="0%" x2="100%" y2="100%">
      <stop offset="0%" style="stop-color:#111;stop-opacity:1" />
      <stop offset="100%" style="stop-color:#222;stop-opacity:1" />
    </linearGradient>
  </defs>
  
  <!-- Background -->
  <rect width="100%" height="100%" fill="url(#bgGradient)"/>
  
  <!-- Studio Floor -->
  <rect x="100" y="400" width="600" height="200" fill="#1a1a1a"/>
  
  <!-- Easel -->
  <polygon points="350,200 320,450 380,450" fill="none" stroke="#555" stroke-width="5"/>
  <rect x="300" y="150" width="100" height="120" fill="#333" stroke="#444" stroke-width="3"/>
  
  <!-- Digital Canvas -->
  <rect x="310" y="160" width="80" height="100" rx="3" ry="3" fill="#111" stroke="#0066cc" stroke-width="2"/>
  <rect x="320" y="170" width="60" height="80" fill="#1e1e1e"/>
  
  <!-- Digital Artwork -->
  <circle cx="350" cy="200" r="15" fill="#d65a31" opacity="0.9"/>
  <rect x="330" y="220" width="40" height="20" rx="5" ry="5" fill="#3f88c5" opacity="0.9"/>
  
  <!-- Artist -->
  <ellipse cx="420" cy="450" rx="25" ry="5" fill="#000" opacity="0.3"/> <!-- Shadow -->
  
  <!-- Body -->
  <rect x="405" y="350" width="30" height="100" rx="10" ry="10" fill="#333"/>
  
  <!-- Head -->
  <circle cx="420" cy="330" r="20" fill="#444"/>
  
  <!-- Hair -->
  <path d="M 405 320 Q 420 310, 435 320" stroke="#222" stroke-width="10" fill="none"/>
  
  <!-- Arm -->
  <path d="M 405 360 Q 380 340, 350 210" stroke="#333" stroke-width="7" fill="none"/>
  <circle cx="350" cy="210" r="5" fill="#444"/> <!-- Hand -->
  
  <!-- Digital Pen -->
  <line x1="350" y1="210" x2="340" y2="195" stroke="#666" stroke-width="2"/>
  
  <!-- Other Arm -->
  <path d="M 435 360 Q 460 380, 470 400" stroke="#333" stroke-width="7" fill="none"/>
  
  <!-- VR Headset -->
  <rect x="405" y="320" width="30" height="15" rx="5" ry="5" fill="#222" stroke="#0066cc" stroke-width="1"/>
  
  <!-- Digital Elements floating -->
  <circle cx="500" cy="250" r="10" fill="#44bba4" opacity="0.7">
    <animate attributeName="cy" values="250;240;250" dur="4s" repeatCount="indefinite" />
  </circle>
  
  <rect x="520" y="280" width="20" height="20" rx="3" ry="3" fill="#e94f37" opacity="0.7">
    <animate attributeName="y" values="280;270;280" dur="3s" repeatCount="indefinite" />
  </rect>
  
  <polygon points="480,300 490,320 470,320" fill="#7768ae" opacity="0.7">
    <animate attributeName="cy" values="0;-10;0" dur="3.5s" repeatCount="indefinite" />
  </polygon>
  
  <!-- Smart Studio Lights -->
  <circle cx="200" cy="150" r="5" fill="#fff" opacity="0.8"/>
  <circle cx="600" cy="150" r="5" fill="#fff" opacity="0.8"/>
  
  <!-- Light Beams -->
  <polygon points="200,150 150,450 250,450" fill="#fff" opacity="0.05"/>
  <polygon points="600,150 550,450 650,450" fill="#fff" opacity="0.05"/>
</svg>