<svg width="100%" height="100%" viewBox="0 0 1200 800" xmlns="http://www.w3.org/2000/svg">
  <defs>
    <linearGradient id="studio-floor" x1="0%" y1="0%" x2="100%" y2="100%">
      <stop offset="0%" stop-color="#2d3436" />
      <stop offset="100%" stop-color="#636e72" />
    </linearGradient>
    <linearGradient id="studio-wall" x1="0%" y1="0%" x2="0%" y2="100%">
      <stop offset="0%" stop-color="#2d3436" />
      <stop offset="100%" stop-color="#1e272e" />
    </linearGradient>
    <linearGradient id="canvas-gradient" x1="0%" y1="0%" x2="100%" y2="100%">
      <stop offset="0%" stop-color="#f5f6fa" />
      <stop offset="100%" stop-color="#dcdde1" />
    </linearGradient>
    <linearGradient id="paint-palette" x1="0%" y1="0%" x2="100%" y2="100%">
      <stop offset="0%" stop-color="#7f8c8d" />
      <stop offset="100%" stop-color="#95a5a6" />
    </linearGradient>
    <filter id="painting-shadow" x="-20%" y="-20%" width="140%" height="140%">
      <feDropShadow dx="5" dy="5" stdDeviation="10" flood-opacity="0.3" />
    </filter>
    <filter id="studio-lights" x="-20%" y="-20%" width="140%" height="140%">
      <feGaussianBlur in="SourceGraphic" stdDeviation="10" />
    </filter>
  </defs>
  
  <!-- Background -->
  <rect width="100%" height="100%" fill="#111" />
  
  <!-- Studio Room -->
  <rect x="100" y="100" width="1000" height="600" fill="url(#studio-wall)" />
  <rect x="100" y="700" width="1000" height="100" fill="url(#studio-floor)" />
  
  <!-- Windows -->
  <rect x="150" y="150" width="200" height="300" fill="#2c3e50" />
  <rect x="160" y="160" width="180" height="280" fill="#3498db" opacity="0.5" />
  <line x1="250" y1="160" x2="250" y2="440" stroke="#7f8c8d" stroke-width="5" />
  <line x1="160" y1="300" x2="340" y2="300" stroke="#7f8c8d" stroke-width="5" />
  
  <!-- Easel -->
  <line x1="500" y1="700" x2="450" y2="250" stroke="#a38068" stroke-width="15" />
  <line x1="700" y1="700" x2="750" y2="250" stroke="#a38068" stroke-width="15" />
  <line x1="450" y1="250" x2="750" y2="250" stroke="#a38068" stroke-width="15" />
  <line x1="600" y1="700" x2="600" y2="300" stroke="#a38068" stroke-width="10" />
  
  <!-- Canvas on Easel -->
  <rect x="480" y="300" width="240" height="320" fill="url(#canvas-gradient)" filter="url(#painting-shadow)" />
  
  <!-- Art on Canvas -->
  <path d="M500,400 Q600,300 700,400 T500,500 Z" fill="#e84393" opacity="0.7" />
  <circle cx="600" cy="450" r="50" fill="#0984e3" opacity="0.6" />
  <rect x="550" y="350" width="100" height="100" fill="#6c5ce7" opacity="0.5" />
  <path d="M550,500 L650,500 L600,600 Z" fill="#00b894" opacity="0.7" />
  
  <!-- Artist (Silhouette) -->
  <path d="M850,350 
           C850,330 870,330 870,350 
           L880,450 
           C885,460 865,480 850,450 Z" 
        fill="#2d3436" />
  <circle cx="860" cy="330" r="25" fill="#2d3436" />
  
  <!-- Artist's Arm -->
  <path d="M850,400 Q800,450 700,500" stroke="#2d3436" stroke-width="15" stroke-linecap="round" />
  
  <!-- Paint Palette -->
  <ellipse cx="800" cy="500" rx="60" ry="30" fill="url(#paint-palette)" />
  <circle cx="780" cy="490" r="10" fill="#e74c3c" />
  <circle cx="800" cy="485" r="10" fill="#f1c40f" />
  <circle cx="820" cy="490" r="10" fill="#2ecc71" />
  <circle cx="830" cy="510" r="10" fill="#3498db" />
  <circle cx="810" cy="515" r="10" fill="#9b59b6" />
  <circle cx="790" cy="510" r="10" fill="#e67e22" />
  
  <!-- Paint Brushes -->
  <line x1="700" y1="500" x2="650" y2="400" stroke="#a38068" stroke-width="5" />
  <line x1="840" y1="490" x2="880" y2="470" stroke="#a38068" stroke-width="5" />
  <line x1="850" y1="510" x2="900" y2="500" stroke="#a38068" stroke-width="5" />
  
  <!-- Studio Lights -->
  <circle cx="300" cy="200" r="50" fill="#f1c40f" opacity="0.2" filter="url(#studio-lights)" />
  <circle cx="900" cy="200" r="70" fill="#f1c40f" opacity="0.1" filter="url(#studio-lights)" />
  
  <!-- Art Supplies -->
  <rect x="950" y="600" width="100" height="80" fill="#34495e" />
  <rect x="960" y="590" width="80" height="10" fill="#7f8c8d" />
  
  <!-- Extra Elements -->
  <rect x="950" y="300" width="100" height="150" fill="#2c3e50" /> <!-- Second canvas -->
  <rect x="960" y="310" width="80" height="130" fill="#ecf0f1" /> <!-- Second canvas interior -->
  <circle cx="1000" cy="375" r="30" fill="#e74c3c" opacity="0.6" /> <!-- Art on second canvas -->
</svg>