<svg width="1200" height="800" viewBox="0 0 1200 800" xmlns="http://www.w3.org/2000/svg">
  <defs>
    <linearGradient id="grad1" x1="0%" y1="0%" x2="100%" y2="100%">
      <stop offset="0%" style="stop-color:#111;stop-opacity:1" />
      <stop offset="100%" style="stop-color:#333;stop-opacity:1" />
    </linearGradient>
    <pattern id="grid" width="40" height="40" patternUnits="userSpaceOnUse">
      <path d="M 40 0 L 0 0 0 40" fill="none" stroke="#ffffff" stroke-width="0.5" stroke-opacity="0.1"/>
    </pattern>
  </defs>
  
  <!-- Background -->
  <rect width="100%" height="100%" fill="url(#grad1)"/>
  <rect width="100%" height="100%" fill="url(#grid)"/>
  
  <!-- Abstract Art Frames -->
  <rect x="250" y="150" width="180" height="220" rx="2" ry="2" fill="#222" stroke="#444" stroke-width="2"/>
  <rect x="460" y="180" width="220" height="160" rx="2" ry="2" fill="#222" stroke="#444" stroke-width="2"/>
  <rect x="710" y="140" width="190" height="240" rx="2" ry="2" fill="#222" stroke="#444" stroke-width="2"/>
  <rect x="300" y="420" width="240" height="180" rx="2" ry="2" fill="#222" stroke="#444" stroke-width="2"/>
  <rect x="580" y="380" width="200" height="220" rx="2" ry="2" fill="#222" stroke="#444" stroke-width="2"/>
  
  <!-- Abstract Art -->
  <circle cx="340" cy="260" r="60" fill="#1a1a1a" stroke="#d65a31" stroke-width="2"/>
  <rect x="480" y="210" width="180" height="100" rx="10" ry="10" fill="#1a1a1a" stroke="#3f88c5" stroke-width="2"/>
  <polygon points="805,180 850,270 760,270" fill="#1a1a1a" stroke="#44bba4" stroke-width="2"/>
  <ellipse cx="420" cy="510" rx="80" ry="50" fill="#1a1a1a" stroke="#e94f37" stroke-width="2"/>
  <rect x="600" y="420" width="160" height="140" rx="20" ry="20" fill="#1a1a1a" stroke="#7768ae" stroke-width="2"/>
  
  <!-- Dynamic Elements -->
  <circle cx="340" cy="260" r="30" fill="#d65a31" opacity="0.7"/>
  <rect x="520" y="230" width="100" height="60" rx="5" ry="5" fill="#3f88c5" opacity="0.7"/>
  <polygon points="805,210 830,250 780,250" fill="#44bba4" opacity="0.7"/>
  <ellipse cx="420" cy="510" rx="40" ry="25" fill="#e94f37" opacity="0.7"/>
  <rect x="620" y="440" width="120" height="100" rx="15" ry="15" fill="#7768ae" opacity="0.7"/>
</svg>