<svg width="100%" height="100%" viewBox="0 0 1200 800" xmlns="http://www.w3.org/2000/svg">
  <defs>
    <linearGradient id="floor-gradient" x1="0%" y1="0%" x2="100%" y2="100%">
      <stop offset="0%" stop-color="#222222" />
      <stop offset="100%" stop-color="#444444" />
    </linearGradient>
    <linearGradient id="wall-gradient" x1="0%" y1="0%" x2="0%" y2="100%">
      <stop offset="0%" stop-color="#333333" />
      <stop offset="100%" stop-color="#111111" />
    </linearGradient>
    <pattern id="floor-pattern" width="80" height="80" patternUnits="userSpaceOnUse">
      <rect width="80" height="80" fill="url(#floor-gradient)" />
      <line x1="0" y1="80" x2="80" y2="80" stroke="#555" stroke-width="2" />
      <line x1="80" y1="0" x2="80" y2="80" stroke="#555" stroke-width="2" />
    </pattern>
    <filter id="blur-filter" x="-10%" y="-10%" width="120%" height="120%">
      <feGaussianBlur in="SourceGraphic" stdDeviation="5" />
    </filter>
  </defs>
  
  <!-- Background -->
  <rect width="100%" height="100%" fill="#0f0f0f" />
  
  <!-- Gallery Room -->
  
  <!-- Back Wall -->
  <polygon points="200,100 1000,100 1000,500 200,500" fill="url(#wall-gradient)" />
  
  <!-- Left Wall -->
  <polygon points="0,0 200,100 200,500 0,700" fill="#111" />
  
  <!-- Right Wall -->
  <polygon points="1200,0 1000,100 1000,500 1200,700" fill="#111" />
  
  <!-- Floor -->
  <polygon points="0,700 200,500 1000,500 1200,700" fill="url(#floor-pattern)" />
  
  <!-- Ceiling Light Glow -->
  <ellipse cx="600" cy="150" rx="300" ry="50" fill="white" opacity="0.1" filter="url(#blur-filter)" />
  
  <!-- Art on Walls -->
  
  <!-- Left Wall Art -->
  <rect x="250" y="150" width="150" height="200" fill="#222" stroke="#333" stroke-width="10" />
  <rect x="430" y="150" width="150" height="200" fill="#222" stroke="#333" stroke-width="10" />
  <rect x="610" y="150" width="150" height="200" fill="#222" stroke="#333" stroke-width="10" />
  <rect x="790" y="150" width="150" height="200" fill="#222" stroke="#333" stroke-width="10" />
  
  <!-- People Silhouettes -->
  <ellipse cx="300" cy="620" rx="40" ry="10" fill="#000" opacity="0.5" />
  <path d="M300,620 C280,580 320,580 300,620 L290,550 L310,550 Z" fill="#000" opacity="0.8" />
  
  <ellipse cx="500" cy="620" rx="40" ry="10" fill="#000" opacity="0.5" />
  <path d="M500,620 C480,580 520,580 500,620 L490,550 L510,550 Z" fill="#000" opacity="0.8" />
  
  <ellipse cx="700" cy="620" rx="40" ry="10" fill="#000" opacity="0.5" />
  <path d="M700,620 C680,580 720,580 700,620 L690,550 L710,550 Z" fill="#000" opacity="0.8" />
  
  <ellipse cx="900" cy="620" rx="40" ry="10" fill="#000" opacity="0.5" />
  <path d="M900,620 C880,580 920,580 900,620 L890,550 L910,550 Z" fill="#000" opacity="0.8" />
  
  <!-- Gallery Spotlights -->
  <polygon points="250,100 290,100 340,350 250,350" fill="white" opacity="0.05" />
  <polygon points="430,100 470,100 520,350 430,350" fill="white" opacity="0.05" />
  <polygon points="610,100 650,100 700,350 610,350" fill="white" opacity="0.05" />
  <polygon points="790,100 830,100 880,350 790,350" fill="white" opacity="0.05" />
  
  <!-- Artworks on the Wall -->
  <!-- First Artwork -->
  <rect x="260" y="170" width="130" height="160" fill="#ff6b6b" />
  <circle cx="325" cy="230" r="40" fill="#48dbfb" opacity="0.8" />
  <rect x="305" y="210" width="40" height="40" fill="#1dd1a1" opacity="0.6" />
  
  <!-- Second Artwork -->
  <rect x="440" y="170" width="130" height="160" fill="#feca57" />
  <path d="M450,330 L560,330 L505,170 Z" fill="#5f27cd" opacity="0.7" />
  <circle cx="505" cy="250" r="30" fill="#ff9ff3" opacity="0.5" />
  
  <!-- Third Artwork -->
  <rect x="620" y="170" width="130" height="160" fill="#54a0ff" />
  <rect x="645" y="195" width="80" height="110" fill="black" opacity="0.6" />
  <rect x="660" y="210" width="50" height="80" fill="white" opacity="0.8" />
  
  <!-- Fourth Artwork -->
  <rect x="800" y="170" width="130" height="160" fill="#00d2d3" />
  <circle cx="865" cy="230" r="50" fill="#ff9f43" opacity="0.7" />
  <rect x="840" y="205" width="50" height="50" fill="#ee5253" opacity="0.6" />
</svg>