<svg width="100%" height="100%" viewBox="0 0 1200 800" xmlns="http://www.w3.org/2000/svg">
  <defs>
    <linearGradient id="bg-gradient" x1="0%" y1="0%" x2="100%" y2="100%">
      <stop offset="0%" stop-color="#1a1a1a" />
      <stop offset="100%" stop-color="#111111" />
    </linearGradient>
    <filter id="noise" x="0%" y="0%" width="100%" height="100%">
      <feTurbulence type="fractalNoise" baseFrequency="0.02" numOctaves="3" result="noise" />
      <feDisplacementMap in="SourceGraphic" in2="noise" scale="10" xChannelSelector="R" yChannelSelector="G" result="noisy" />
    </filter>
  </defs>
  
  <!-- Background -->
  <rect width="100%" height="100%" fill="url(#bg-gradient)" />
  
  <!-- Gallery hall perspective lines -->
  <path d="M 0,400 L 1200,300" stroke="#333" stroke-width="2" />
  <path d="M 0,450 L 1200,500" stroke="#333" stroke-width="2" />
  
  <!-- Gallery frames -->
  <rect x="150" y="200" width="150" height="120" fill="#222" stroke="#444" stroke-width="3" />
  <rect x="450" y="150" width="200" height="180" fill="#222" stroke="#444" stroke-width="3" />
  <rect x="750" y="220" width="170" height="130" fill="#222" stroke="#444" stroke-width="3" />
  <rect x="200" y="500" width="180" height="150" fill="#222" stroke="#444" stroke-width="3" />
  <rect x="550" y="450" width="220" height="200" fill="#222" stroke="#444" stroke-width="3" />
  <rect x="850" y="480" width="150" height="120" fill="#222" stroke="#444" stroke-width="3" />
  
  <!-- Spotlights glow effect -->
  <circle cx="225" cy="200" r="50" fill="#fff" opacity="0.05" />
  <circle cx="550" cy="150" r="60" fill="#fff" opacity="0.05" />
  <circle cx="835" cy="220" r="50" fill="#fff" opacity="0.05" />
  <circle cx="290" cy="500" r="60" fill="#fff" opacity="0.05" />
  <circle cx="660" cy="450" r="70" fill="#fff" opacity="0.05" />
  <circle cx="925" cy="480" r="50" fill="#fff" opacity="0.05" />
  
  <!-- Abstract art inside frames -->
  <path d="M 175,260 Q 200,220 225,260 Q 250,300 275,260" stroke="#6c5ce7" stroke-width="3" fill="none" />
  <path d="M 500,240 L 550,200 L 600,240 L 580,280 L 520,280 Z" fill="#e84393" opacity="0.7" />
  <circle cx="835" cy="285" r="40" fill="#00cec9" opacity="0.7" />
  <path d="M 230,550 L 290,520 L 350,550 L 320,600 L 260,600 Z" fill="#fdcb6e" opacity="0.7" />
  <path d="M 600,550 Q 640,500 680,550 Q 720,600 660,620 Q 600,600 600,550" fill="#0984e3" opacity="0.5" />
  <rect x="875" y="520" width="100" height="40" fill="#d63031" opacity="0.6" />
  
  <!-- Decorative elements -->
  <circle cx="120" cy="700" r="30" fill="#222" />
  <circle cx="1080" cy="100" r="40" fill="#222" />
  <rect x="0" y="750" width="1200" height="50" fill="#111" /> <!-- Floor -->
  
  <!-- Apply noise filter to whole scene -->
  <rect width="100%" height="100%" fill="transparent" filter="url(#noise)" />
</svg>