<svg width="800" height="600" viewBox="0 0 800 600" xmlns="http://www.w3.org/2000/svg">
  <defs>
    <linearGradient id="floorGradient" x1="0%" y1="0%" x2="100%" y2="0%">
      <stop offset="0%" style="stop-color:#222;stop-opacity:1" />
      <stop offset="100%" style="stop-color:#333;stop-opacity:1" />
    </linearGradient>
    <linearGradient id="wallGradient" x1="0%" y1="0%" x2="0%" y2="100%">
      <stop offset="0%" style="stop-color:#111;stop-opacity:1" />
      <stop offset="100%" style="stop-color:#1a1a1a;stop-opacity:1" />
    </linearGradient>
  </defs>
  
  <!-- Background -->
  <rect width="100%" height="100%" fill="#0a0a0a"/>
  
  <!-- Floor -->
  <polygon points="100,450 700,450 600,600 200,600" fill="url(#floorGradient)" />
  
  <!-- Left Wall -->
  <polygon points="100,450 100,150 400,50 400,350 100,450" fill="url(#wallGradient)" />
  
  <!-- Right Wall -->
  <polygon points="400,350 400,50 700,150 700,450 400,350" fill="url(#wallGradient)" />
  
  <!-- Artworks on Left Wall -->
  <rect x="150" y="200" width="100" height="80" rx="2" ry="2" fill="#d65a31" opacity="0.9" />
  <rect x="280" y="170" width="70" height="120" rx="2" ry="2" fill="#3f88c5" opacity="0.9" />
  
  <!-- Artworks on Right Wall -->
  <rect x="450" y="180" width="90" height="70" rx="2" ry="2" fill="#44bba4" opacity="0.9" />
  <rect x="570" y="190" width="80" height="100" rx="2" ry="2" fill="#e94f37" opacity="0.9" />
  
  <!-- Gallery Spotlights -->
  <circle cx="150" cy="150" r="10" fill="#fff" opacity="0.7">
    <animate attributeName="opacity" values="0.7;0.9;0.7" dur="3s" repeatCount="indefinite" />
  </circle>
  <circle cx="280" cy="150" r="10" fill="#fff" opacity="0.7">
    <animate attributeName="opacity" values="0.7;0.9;0.7" dur="4s" repeatCount="indefinite" />
  </circle>
  <circle cx="450" cy="150" r="10" fill="#fff" opacity="0.7">
    <animate attributeName="opacity" values="0.7;0.9;0.7" dur="3.5s" repeatCount="indefinite" />
  </circle>
  <circle cx="570" cy="150" r="10" fill="#fff" opacity="0.7">
    <animate attributeName="opacity" values="0.7;0.9;0.7" dur="2.5s" repeatCount="indefinite" />
  </circle>
  
  <!-- Light Beams -->
  <polygon points="150,150 130,240 170,240" fill="#fff" opacity="0.2" />
  <polygon points="280,150 260,240 300,240" fill="#fff" opacity="0.2" />
  <polygon points="450,150 430,240 470,240" fill="#fff" opacity="0.2" />
  <polygon points="570,150 550,240 590,240" fill="#fff" opacity="0.2" />
  
  <!-- Visitor Silhouette -->
  <ellipse cx="400" cy="500" rx="20" ry="5" fill="#000" opacity="0.5" />
  <path d="M390 500 L390 460 A10 15 0 0 1 410 460 L410 500" fill="#222" />
  <circle cx="400" cy="450" r="15" fill="#222" />
</svg>